<?xml version="1.0" encoding="UTF-8"?>
<svg width="32px" height="32px" viewBox="0 0 32 32" version="1.1" xmlns="http://www.w3.org/2000/svg" xmlns:xlink="http://www.w3.org/1999/xlink">
    <title>FEC11431-4091-45A0-88E0-C8BA4FBF7360</title>
    <g id="Page-1" stroke="none" stroke-width="1" fill="none" fill-rule="evenodd" stroke-linecap="round" stroke-linejoin="round">
        <g id="16.-Home_d" transform="translate(-1534.000000, -62.000000)" stroke="#0D191B" stroke-width="2">
            <g id="Group" transform="translate(1550.000000, 78.500000) scale(-1, 1) translate(-1550.000000, -78.500000) translate(1535.000000, 63.000000)">
                <g id="shopping-cart-1">
                    <path d="M6.39999986,25.7749995 L20.2893996,25.7749995 C21.3136787,25.7749995 22.1886036,25.0362367 22.3599996,24.0263996 L26.0517995,2.32639994 C26.2238033,1.31711932 27.0985672,0.579199925 28.1223995,0.579199925 L29.4999995,0.579199925" id="Shape"></path>
                    <path d="M9.02499981,28.9249995 C9.3149493,28.9249995 9.5499998,29.16005 9.5499998,29.4499995 C9.5499998,29.739949 9.3149493,29.9749995 9.02499981,29.9749995 C8.73505032,29.9749995 8.49999982,29.739949 8.49999982,29.4499995 C8.49999982,29.16005 8.73505032,28.9249995 9.02499981,28.9249995" id="Shape"></path>
                    <path d="M19.5249996,28.9249995 C19.8149491,28.9249995 20.0499996,29.16005 20.0499996,29.4499995 C20.0499996,29.739949 19.8149491,29.9749995 19.5249996,29.9749995 C19.2350501,29.9749995 18.9999996,29.739949 18.9999996,29.4499995 C18.9999996,29.16005 19.2350501,28.9249995 19.5249996,28.9249995" id="Shape"></path>
                    <path d="M23.1341996,19.4749997 L6.23479986,19.4749997 C4.30793912,19.4747882 2.62838479,18.1634661 2.16079993,16.2941997 L0.130799964,8.17419984 C0.0523070349,7.86040849 0.122820921,7.52795306 0.321935705,7.27304237 C0.521050489,7.01813169 0.826540332,6.86921971 1.14999995,6.8693997 L25.2775995,6.8693997" id="Shape"></path>
                </g>
            </g>
        </g>
    </g>
</svg>