<?xml version="1.0" encoding="UTF-8"?>
<svg width="41px" height="28px" viewBox="0 0 41 28" version="1.1" xmlns="http://www.w3.org/2000/svg" xmlns:xlink="http://www.w3.org/1999/xlink">
    <title>FBD4FD06-6AB8-44D9-8189-8B7416C0E30A</title>
    <g id="Page-1" stroke="none" stroke-width="1" fill="none" fill-rule="evenodd" stroke-linecap="round" stroke-linejoin="round">
        <g id="24.-Checkout_d" transform="translate(-915.000000, -176.000000)" stroke="#FF7332">
            <g id="cash-payment-bill" transform="translate(916.000000, 177.000000)">
                <path d="M5.75,5.23688811 C6.16421356,5.23688811 6.5,5.57267455 6.5,5.98688811 C6.5,6.40110167 6.16421356,6.73688811 5.75,6.73688811 C5.33578644,6.73688811 5,6.40110167 5,5.98688811 C5,5.57267455 5.33578644,5.23688811 5.75,5.23688811" id="Shape" stroke-width="2"></path>
                <path d="M32.75,18.2368881 C33.1642136,18.2368881 33.5,18.5726745 33.5,18.9868881 C33.5,19.4011017 33.1642136,19.7368881 32.75,19.7368881 C32.3357864,19.7368881 32,19.4011017 32,18.9868881 C32,18.5726745 32.3357864,18.2368881 32.75,18.2368881" id="Shape" stroke-width="2"></path>
                <path d="M3.00085805,0.236888112 L35.9991419,0.236888112 C37.6667762,0.255198709 39.0072138,1.65085403 39,3.36133256 L39,22.1124437 C39.0072138,23.8229222 37.6667762,25.2185775 35.9991419,25.2368881 L3.00085805,25.2368881 C1.33322382,25.2185775 -0.0072137572,23.8229222 0,22.1124437 L0,3.36133256 C-0.0072137572,1.65085403 1.33322382,0.255198709 3.00085805,0.236888112 Z" id="Shape" stroke-width="2"></path>
                <path d="M21.5032626,8.23688811 L18.7899829,8.23688811 C17.9323278,8.23756136 17.1954697,8.9214777 17.032719,9.86789614 C16.8699684,10.8143146 17.3270095,11.7575744 18.1226736,12.1173881 L20.8773264,13.3563881 C21.6729905,13.7162018 22.1300316,14.6594616 21.967281,15.6058801 C21.8045303,16.5522985 21.0676722,17.2362149 20.2100171,17.2368881 L17.4994067,17.2368881" id="Shape" stroke-width="1.5"></path>
                <line x1="19" y1="8" x2="19" y2="6.5" id="Shape" stroke-width="1.5"></line>
                <line x1="19" y1="18.7368881" x2="19" y2="17.2368881" id="Shape" stroke-width="1.5"></line>
            </g>
        </g>
    </g>
</svg>