<svg id="Capa_1" enable-background="new 0 0 128 128" height="512" viewBox="0 0 128 128" width="512" xmlns="http://www.w3.org/2000/svg" xmlns:xlink="http://www.w3.org/1999/xlink"><linearGradient id="SVGID_1_" gradientTransform="matrix(1 0 0 -1 0 130)" gradientUnits="userSpaceOnUse" x1="64.04" x2="64.04" y1="166.86" y2="13.77"><stop offset="0" stop-color="#c3edf5"/><stop offset="1" stop-color="#3fa9f5"/></linearGradient><linearGradient id="lg1"><stop offset="0" stop-color="#54678c"/><stop offset="1" stop-color="#3d506d"/></linearGradient><linearGradient id="SVGID_2_" gradientTransform="matrix(1 0 0 -1 0 130)" gradientUnits="userSpaceOnUse" x1="1.26" x2="122.55" xlink:href="#lg1" y1="74.11" y2="74.11"/><linearGradient id="SVGID_3_" gradientTransform="matrix(1 0 0 -1 0 130)" gradientUnits="userSpaceOnUse" x1="88.32" x2="88.32" y1="90.2" y2="-54.88"><stop offset="0" stop-color="#f3f7ff"/><stop offset="1" stop-color="#cdd9ff"/></linearGradient><linearGradient id="SVGID_4_" gradientTransform="matrix(1 0 0 -1 0 130)" gradientUnits="userSpaceOnUse" x1="88.32" x2="88.32" xlink:href="#lg1" y1="88.34" y2="-20.51"/><g><path d="m25.04 29h78c4.418 0 8 3.582 8 8v54c0 4.418-3.582 8-8 8h-78c-4.418 0-8-3.582-8-8v-54c0-4.418 3.582-8 8-8z" fill="url(#SVGID_1_)"/><path d="m17.06 45.89h93.98v20h-93.98z" fill="url(#SVGID_2_)"/><circle cx="88.32" cy="78.5" fill="url(#SVGID_3_)" r="30.5"/><path d="m88.32 111c-17.949 0-32.5-14.551-32.5-32.5s14.551-32.5 32.5-32.5 32.5 14.551 32.5 32.5c-.022 17.94-14.56 32.478-32.5 32.5zm0-61c-15.74 0-28.5 12.76-28.5 28.5s12.76 28.5 28.5 28.5 28.5-12.76 28.5-28.5c-.017-15.733-12.767-28.483-28.5-28.5z" fill="url(#SVGID_4_)"/><g fill="#54678c"><circle cx="88.32" cy="78.5" r="5"/><circle cx="72.32" cy="78.5" r="5"/><circle cx="104.32" cy="78.5" r="5"/></g><g><path d="m24.5 59.09c-.552 0-1-.448-1-1v-19.25c0-2.206 1.794-4 4-4h7c.552 0 1 .448 1 1s-.448 1-1 1h-7c-1.103 0-2 .897-2 2v19.25c0 .552-.448 1-1 1z" fill="#fff"/></g><g><path d="m71.18 63c-.254 0-.509-.096-.703-.289-.393-.389-.396-1.022-.008-1.415 4.522-4.568 10.55-7.266 16.971-7.595.513-.035 1.021.395 1.05.947.028.552-.396 1.021-.948 1.05-5.922.304-11.479 2.791-15.65 7.005-.197.198-.454.297-.712.297z" fill="#fff"/></g><g><path d="m41.45 36.84h-2.68c-.552 0-1-.448-1-1s.448-1 1-1h2.68c.552 0 1 .448 1 1s-.448 1-1 1z" fill="#fff"/></g></g></svg>