<?xml version="1.0" encoding="UTF-8"?>
<svg width="46px" height="41px" viewBox="0 0 46 41" version="1.1" xmlns="http://www.w3.org/2000/svg" xmlns:xlink="http://www.w3.org/1999/xlink">
    <title>405AD560-6CD7-42B1-ABFB-FE6C2FBA38C8</title>
    <g id="Page-1" stroke="none" stroke-width="1" fill="none" fill-rule="evenodd">
        <g id="25.-Pay-by-card_d" transform="translate(-1093.000000, -709.000000)" fill="#FF7332" fill-rule="nonzero" stroke="#FFFFFF" stroke-width="1.4">
            <g id="cvv" transform="translate(1094.000000, 710.000000)">
                <path d="M39.8541667,0 L4.02083333,0 C2.04278502,0.00235127354 0.439844758,1.60974558 0.4375,3.59329022 L0.4375,26.9496767 C0.439844758,28.9332213 2.04278502,30.5406156 4.02083333,30.5429669 L11.9019271,30.5429669 C15.8717451,32.938494 20.8365882,32.938494 24.8064063,30.5429669 L26.5703021,30.5429669 L35.003901,39 L37.5377656,36.4590947 L31.6380312,30.5429669 L39.8541667,30.5429669 C41.832215,30.5406156 43.4351552,28.9332213 43.4375,26.9496767 L43.4375,3.59329022 C43.4351552,1.60974558 41.832215,0.00235127354 39.8541667,0 Z M39.8541667,3.59329022 L39.8541667,7.18658044 L4.02083333,7.18658044 L4.02083333,3.59329022 L39.8541667,3.59329022 Z M39.8541667,14.3731609 L29.6833229,14.3731609 C29.0458336,13.0336662 28.1779372,11.8173028 27.1194479,10.7798707 L39.8541667,10.7798707 L39.8541667,14.3731609 Z M7.02501042,14.3731609 L4.02083333,14.3731609 L4.02083333,10.7798707 L9.58888542,10.7798707 C8.53039616,11.8173028 7.66249972,13.0336662 7.02501042,14.3731609 L7.02501042,14.3731609 Z M4.02083333,17.9664511 L5.94261979,17.9664511 C5.4843222,21.1233298 6.24534927,24.3365581 8.07022396,26.9496767 L4.02083333,26.9496767 L4.02083333,17.9664511 Z M9.39583333,19.7630962 C9.39583333,14.8017977 13.4066158,10.7798707 18.3541667,10.7798707 C23.3017176,10.7798707 27.3125,14.8017977 27.3125,19.7630962 C27.3125,24.7243947 23.3017176,28.7463218 18.3541667,28.7463218 C13.4089182,28.7407523 9.40138737,24.7220859 9.39583333,19.7630962 Z M28.6376615,26.9496767 C30.4625361,24.3365581 31.2235632,21.1233298 30.7652656,17.9664511 L39.8541667,17.9664511 L39.8541667,26.9496767 L28.6376615,26.9496767 Z" id="Shape"></path>
                <circle id="Oval" cx="17.4375" cy="20" r="2"></circle>
                <circle id="Oval" cx="23.4375" cy="20" r="2"></circle>
                <circle id="Oval" cx="12.4375" cy="20" r="2"></circle>
            </g>
        </g>
    </g>
</svg>