<?xml version="1.0" encoding="UTF-8"?>
<svg width="32px" height="29px" viewBox="0 0 32 29" version="1.1" xmlns="http://www.w3.org/2000/svg" xmlns:xlink="http://www.w3.org/1999/xlink">
    <title>FFF7136C-005F-43E2-B57B-19245A9F439B</title>
    <g id="Page-1" stroke="none" stroke-width="1" fill="none" fill-rule="evenodd" stroke-linejoin="round">
        <g id="33.-Thank-you_d" transform="translate(-824.000000, -591.000000)" fill="#FF0000" stroke="#FF0000" stroke-width="2">
            <path d="M848.095044,592.107308 C845.565868,591.681253 842.990982,592.538314 841.197921,594.407779 L839.999247,595.593076 L838.802971,594.412682 C837.009674,592.543545 834.434834,591.686683 831.905692,592.112683 C829.391411,592.536179 827.219988,594.16787 825.970538,596.845208 C825.301098,598.389558 825.12322,600.068053 825.403908,601.664792 C825.683626,603.256018 826.418535,604.765647 827.573895,605.98124 L840.000154,619.476464 L852.426179,605.975829 C853.632876,604.706192 854.381554,603.116251 854.615748,601.411934 C854.8438,599.752324 854.583814,597.982151 853.761072,596.273205 C852.619582,594.060518 850.523584,592.516411 848.095044,592.107308 Z" id="Heart"></path>
        </g>
    </g>
</svg>