<?xml version="1.0" encoding="UTF-8"?>
<svg width="22px" height="27px" viewBox="0 0 22 27" version="1.1" xmlns="http://www.w3.org/2000/svg" xmlns:xlink="http://www.w3.org/1999/xlink">
    <title>8F30893E-858A-40B6-BDCD-5F39789B77F8</title>
    <g id="Page-1" stroke="none" stroke-width="1" fill="none" fill-rule="evenodd">
        <g id="12.-Login_d" transform="translate(-743.000000, -404.000000)" fill="#000000" fill-rule="nonzero">
            <g id="apple" transform="translate(743.000000, 404.000000)">
                <path d="M7.29393864,26.1428571 C3.30202998,26.1205753 0,18.2253763 0,14.2045358 C0,7.63650503 5.08542582,6.19858724 7.045312,6.19858724 C7.92854949,6.19858724 8.87166482,6.53464279 9.70351109,6.83202226 C10.2852115,7.03946207 10.8868188,7.25360168 11.2214118,7.25360168 C11.4216857,7.25360168 11.8936362,7.07143836 12.310319,6.91160768 C13.1989523,6.56885234 14.3047279,6.14285714 15.5923897,6.14285714 C15.5946947,6.14285714 15.5977855,6.14285714 15.6000381,6.14285714 C16.5615411,6.14285714 19.4768535,6.34730235 21.2295508,8.89748736 L21.6401043,9.4952409 L21.0492362,9.92722531 C20.2051315,10.5443169 18.6649665,11.6699837 18.6649665,13.899746 C18.6649665,16.540632 20.4092296,17.5562598 21.2472051,18.0447356 C21.6171066,18.2603472 22,18.4826585 22,18.9689011 C22,19.2863799 19.3847579,26.1034705 15.5869938,26.1034705 C14.6577086,26.1034705 14.0008334,25.8328394 13.421438,25.5941847 C12.83518,25.3525353 12.3294401,25.1443849 11.4937696,25.1443849 C11.0701718,25.1443849 10.5345192,25.3384251 9.96743461,25.544393 C9.19248015,25.824617 8.3153195,26.1428571 7.32002715,26.1428571 L7.29393864,26.1428571 Z" id="Path"></path>
                <path d="M15.9972363,0.142857143 C16.0953226,3.77442072 13.5660174,6.29383263 11.0396734,6.13582259 C10.6233784,3.23770938 13.5657056,0.142857143 15.9972363,0.142857143 Z" id="Path"></path>
            </g>
        </g>
    </g>
</svg>