<?xml version="1.0" encoding="UTF-8"?>
<svg width="36px" height="41px" viewBox="0 0 36 41" version="1.1" xmlns="http://www.w3.org/2000/svg" xmlns:xlink="http://www.w3.org/1999/xlink">
    <title>C759521B-A9A1-441C-BE11-CEE39B5220EF</title>
    <g id="Page-1" stroke="none" stroke-width="1" fill="none" fill-rule="evenodd" stroke-linecap="round" stroke-linejoin="round">
        <g id="10.-Your-address-2_d" transform="translate(-727.000000, -178.000000)" stroke="#FF7332" stroke-width="2">
            <g id="Group" transform="translate(728.000000, 179.000000)">
                <path d="M29.0393127,17.0782986 L10.3522841,17.0782986 C9.42416884,17.0419123 8.61133267,17.6715069 8.45087593,18.5510631 L5.80267517,36.2636985 C5.77493319,36.7555049 5.96689761,37.2353069 6.33030831,37.5824818 C6.69371901,37.9296566 7.19401,38.1111824 7.70540741,38.0814235 L31.6861893,38.0814235 C32.1974786,38.1112187 32.6976629,37.9296596 33.060873,37.5824349 C33.424083,37.2352101 33.6157339,36.7553824 33.5875975,36.2636985 L30.9393967,18.5510631 C30.7790033,17.6720048 29.9669339,17.0425657 29.0393127,17.0782986 Z" id="Shape"></path>
                <path d="M24.5545847,13.3321048 C24.1059335,11.0793513 22.0598376,9.44800887 19.6739507,9.44079859 L19.6739507,9.44079859 C17.3004758,9.4508069 15.2638258,11.0689157 14.8065577,13.3079194" id="Shape"></path>
                <path d="M20.5624999,8.48611109 C20.5624999,6.14273622 18.721271,4.24305554 16.45,4.24305554 L11.309375,4.24305554 C11.309375,1.89968067 9.46814601,0 7.19687498,0 L0,0 L0,8.48611109 L20.5624999,8.48611109 Z" id="Shape" transform="translate(10.281250, 4.243056) scale(1, -1) translate(-10.281250, -4.243056) "></path>
                <line x1="8.56770831" y1="2.54583333" x2="11.9947916" y2="2.54583333" id="Shape" transform="translate(10.281250, 3.394444) scale(1, -1) translate(-10.281250, -3.394444) "></line>
            </g>
        </g>
    </g>
</svg>