<?xml version="1.0" encoding="UTF-8"?>
<svg width="23px" height="23px" viewBox="0 0 23 23" version="1.1" xmlns="http://www.w3.org/2000/svg" xmlns:xlink="http://www.w3.org/1999/xlink">
    <title>919E08F6-7103-4F40-B0B3-45C9E3DA0E39</title>
    <g id="Page-1" stroke="none" stroke-width="1" fill="none" fill-rule="evenodd">
        <g id="12.-Login_d" transform="translate(-738.000000, -331.000000)" fill-rule="nonzero">
            <g id="Google__G__Logo" transform="translate(738.000000, 331.000000)">
                <path d="M22.4489991,11.7347995 C22.4489991,10.9577996 22.3859991,10.1765996 22.2515991,9.41219963 L11.4701995,9.41219963 L11.4701995,13.8137995 L17.6441993,13.8137995 C17.3879993,15.2333994 16.5647993,16.4891994 15.3593994,17.2871993 L15.3593994,20.1431992 L19.0427993,20.1431992 C21.2057992,18.1523993 22.4489991,15.2123994 22.4489991,11.7347995 Z" id="Path" fill="#4285F4"></path>
                <path d="M11.4701995,22.9025991 C14.5529994,22.9025991 17.1527993,21.8903991 19.0469992,20.1431992 L15.3635994,17.2871993 C14.3387994,17.9843993 13.0157995,18.3791993 11.4743995,18.3791993 C8.49239967,18.3791993 5.96399977,16.3673994 5.0567998,13.6625995 L1.25579995,13.6625995 L1.25579995,16.6067993 C3.19619987,20.4665992 7.14839972,22.9025991 11.4701995,22.9025991 Z" id="Path" fill="#34A853"></path>
                <path d="M5.0525998,13.6625995 C4.57379982,12.2429995 4.57379982,10.7057996 5.0525998,9.28619963 L5.0525998,6.34199975 L1.25579995,6.34199975 C-0.365399986,9.57179962 -0.365399986,13.3769995 1.25579995,16.6067993 L5.0525998,13.6625995 Z" id="Path" fill="#FBBC04"></path>
                <path d="M11.4701995,4.56539982 C13.0997995,4.54019982 14.6747994,5.1533998 15.8549994,6.27899975 L15.8549994,6.27899975 L19.1183992,3.01559988 C17.0519993,1.07519996 14.3093994,0.00839999967 11.4701995,0.0419999983 C7.14839972,0.0419999983 3.19619987,2.4779999 1.25579995,6.34199975 L5.0525998,9.28619963 C5.95559977,6.57719974 8.48819967,4.56539982 11.4701995,4.56539982 Z" id="Path" fill="#EA4335"></path>
            </g>
        </g>
    </g>
</svg>