<?xml version="1.0" encoding="UTF-8"?>
<svg width="40px" height="41px" viewBox="0 0 40 41" version="1.1" xmlns="http://www.w3.org/2000/svg" xmlns:xlink="http://www.w3.org/1999/xlink">
    <title>2DBF78E2-AA81-4E7E-BCA0-6E6B6303DA3C</title>
    <g id="Page-1" stroke="none" stroke-width="1" fill="none" fill-rule="evenodd" stroke-linecap="round" stroke-linejoin="round">
        <g id="10.-Your-address-2_d" transform="translate(-915.000000, -178.000000)" stroke="#FFFFFF" stroke-width="2">
            <g id="Group-2" transform="translate(916.000000, 179.000000)">
                <line x1="26.1160714" y1="5.1758167" x2="15.6696429" y2="5.1758167" id="Shape"></line>
                <path d="M32.6450893,28.7085299 C35.1456997,28.6093252 37.3501541,30.3210868 37.8508929,32.7508428 C37.90135,32.9983787 37.8374881,33.2553052 37.6767857,33.4513033 C37.5325037,33.6648593 37.2546687,33.7454921 37.0169196,33.6428085 L20.9416071,33.6428085 C20.4980611,33.6906508 20.0554187,33.5451915 19.728614,33.2441999 C19.4018093,32.9432084 19.223082,32.5163775 19.2388393,32.0745361 L19.2388393,32.0641844 C19.2388393,30.7669717 18.7188045,29.5228893 17.7931367,28.6056214 C16.8674688,27.6883534 15.6119938,27.1730377 14.3029018,27.1730377 L8.86379464,27.1730377 C7.55470263,27.1730377 6.29922761,27.6883534 5.37355977,28.6056214 C4.44789192,29.5228893 3.92785714,30.7669717 3.92785714,32.0641844 L3.92785714,33.7618523" id="Shape"></path>
                <polyline id="Shape" points="30.0334821 19.4093126 32.6450893 19.4093126 32.6450893 33.6428085"></polyline>
                <line x1="14.3029018" y1="27.1730377" x2="20.8928571" y2="27.1730377" id="Shape"></line>
                <rect id="Rectangle-path" x="0" y="12.9395417" width="10.4464286" height="9.05767922" rx="0.9375"></rect>
                <path d="M32.6450893,21.3743977 L35.9792411,20.0614655 C36.3904489,19.9022643 36.8497644,19.9184973 37.2484821,20.1063226 C37.6075363,20.2556595 37.8484683,20.5956709 37.8683036,20.9810356 L37.8683036,24.8508212 C37.8484683,25.2361859 37.6075363,25.5761973 37.2484821,25.7255343 C36.8497644,25.9133595 36.3904489,25.9295925 35.9792411,25.7703913 L32.6450893,24.4574592" id="Shape"></path>
                <ellipse id="Oval" cx="11.7522321" cy="34.9367627" rx="3.91741071" ry="3.88186252"></ellipse>
                <path d="M27.5454911,33.6341822 C27.4635464,33.9732539 27.422057,34.3206863 27.421875,34.6693455 C27.3243616,36.1179687 28.0489586,37.4998729 29.3012294,38.2535278 C30.5535002,39.0071827 32.1250712,39.0071827 33.377342,38.2535278 C34.6296128,37.4998729 35.3542098,36.1179687 35.2566964,34.6693455 C35.2569033,34.3206636 35.2154086,33.973186 35.1330804,33.6341822" id="Shape"></path>
                <line x1="5.22321429" y1="12.9395417" x2="5.22321429" y2="16.8214043" id="Shape"></line>
                <path d="M28.7276786,15.5274501 C21.6798214,10.9727314 21.5892857,10.5517198 19.1117411,10.5517198 C17.222356,10.5422059 15.6821054,12.0507232 15.6696429,13.9229469 L15.6696429,19.4093126 C15.6696429,20.8385749 16.8388992,21.997221 18.28125,21.997221 L20.8928571,21.997221 C23.1409092,21.9971796 25.1368126,23.4224962 25.8479464,25.5357543 L27.2686607,29.760946" id="Shape"></path>
                <path d="M18.28125,0 L20.8928571,0 C22.3352079,0 23.5044643,1.15864603 23.5044643,2.58790835 L23.5044643,5.1758167 L15.6696429,5.1758167 L15.6696429,2.58790835 C15.6696429,1.15864603 16.8388992,0 18.28125,0 Z" id="Shape"></path>
            </g>
        </g>
    </g>
</svg>