<?xml version="1.0" encoding="UTF-8"?>
<svg width="13px" height="25px" viewBox="0 0 13 25" version="1.1" xmlns="http://www.w3.org/2000/svg" xmlns:xlink="http://www.w3.org/1999/xlink">
    <title>DC339302-3747-472E-8D37-31DF8BAA2AE6</title>
    <g id="Page-1" stroke="none" stroke-width="1" fill="none" fill-rule="evenodd">
        <g id="12.-Login_d" transform="translate(-729.000000, -255.000000)" fill="#FFFFFF" fill-rule="nonzero">
            <g id="Path-2" transform="translate(729.000000, 255.000000)">
                <path d="M12.5104582,0.0052016687 L9.39234929,0 C5.88926091,0 3.6254113,2.41487469 3.6254113,6.15253373 L3.6254113,8.98926376 L0.49029229,8.98926376 C0.219380785,8.98926376 0,9.21761701 0,9.49928737 L0,13.6093859 C0,13.8910563 0.219630934,14.1191494 0.49029229,14.1191494 L3.6254113,14.1191494 L3.6254113,24.4902365 C3.6254113,24.7719068 3.84479209,25 4.11570359,25 L8.20614212,25 C8.47705363,25 8.69643441,24.7716467 8.69643441,24.4902365 L8.69643441,14.1191494 L12.3621197,14.1191494 C12.6330312,14.1191494 12.852412,13.8910563 12.852412,13.6093859 L12.8539129,9.49928737 C12.8539129,9.36404399 12.802132,9.23452243 12.7103273,9.13881173 C12.6185226,9.04310103 12.493448,8.98926376 12.3633705,8.98926376 L8.69643441,8.98926376 L8.69643441,6.58453232 C8.69643441,5.42872153 8.96134234,4.84197331 10.4094556,4.84197331 L12.5099579,4.84119305 C12.7806192,4.84119305 13,4.6128398 13,4.33142952 L13,0.514965201 C13,0.233815008 12.7808694,0.00572183556 12.5104582,0.0052016687 Z" id="Path"></path>
            </g>
        </g>
    </g>
</svg>