<?xml version="1.0" encoding="UTF-8"?>
<svg width="42px" height="41px" viewBox="0 0 42 41" version="1.1" xmlns="http://www.w3.org/2000/svg" xmlns:xlink="http://www.w3.org/1999/xlink">
    <title>E402CB66-BB0F-4C1D-819B-DE4CF75D1E25</title>
    <g id="Page-1" stroke="none" stroke-width="1" fill="none" fill-rule="evenodd">
        <g id="33.-Thank-you_d" transform="translate(-855.000000, -673.000000)" fill="#000000" fill-rule="nonzero">
            <g id="instagram" transform="translate(856.551724, 673.567544)">
                <path d="M38.3491544,11.4661416 C38.257772,9.39391509 37.9226044,7.96927792 37.4424752,6.73481071 C36.9471653,5.42445402 36.1851501,4.25129342 35.1867911,3.27604047 C34.211352,2.28560963 33.0302284,1.51600205 31.7348025,1.02852433 C30.4929557,0.548486809 29.0754883,0.213383068 27.0028663,0.122018184 C24.914766,0.0229155983 24.2518722,0 18.9558663,0 C13.6598603,0 12.9969665,0.0229155983 10.9166054,0.114280482 C8.84398341,0.205645365 7.4190744,0.541046617 6.18466921,1.02078663 C4.87376493,1.51600205 3.70038047,2.27787193 2.72494144,3.27604047 C1.73432161,4.25129342 0.964864749,5.43219173 0.476996449,6.72737052 C-0.00313267144,7.96927792 -0.338300355,9.38617738 -0.429682671,11.4584039 C-0.528804167,13.5461059 -0.551724138,14.2088732 -0.551724138,19.5038689 C-0.551724138,24.7988645 -0.528804167,25.4616318 -0.43742185,27.5415961 C-0.346039534,29.6138226 -0.0105742838,31.0384598 0.469554837,32.272927 C0.964864749,33.5832837 1.73432161,34.7564443 2.72494144,35.7316972 C3.70038047,36.7221281 4.88150411,37.4917357 6.17693003,37.9792134 C7.4190744,38.4592509 8.83624423,38.7943546 10.9091638,38.8857195 C12.9892273,38.9773819 13.6524187,39 18.9484246,39 C24.2444306,39 24.9073244,38.9773819 26.9876855,38.8857195 C29.0603075,38.7943546 30.4852165,38.4592509 31.7196217,37.9792134 C34.3411327,36.9658669 36.4137547,34.8936404 37.4272945,32.272927 C37.907126,31.0310196 38.2425913,29.6138226 38.3339736,27.5415961 C38.4253559,25.4616318 38.4482759,24.7988645 38.4482759,19.5038689 C38.4482759,14.2088732 38.4405367,13.5461059 38.3491544,11.4661416 Z M34.8364426,27.3892221 C34.7525019,29.2938968 34.432515,30.3224211 34.1658097,31.008104 C33.5103575,32.7071333 32.1616501,34.0555835 30.4622965,34.7109106 C29.7764828,34.9775651 28.7403206,35.2974909 26.8427241,35.3811181 C24.7852829,35.4727805 24.1682291,35.4953986 18.9636054,35.4953986 C13.7589818,35.4953986 13.1341888,35.4727805 11.0841892,35.3811181 C9.17915109,35.2974909 8.1504305,34.9775651 7.46461678,34.7109106 C6.61895839,34.3984249 5.84920396,33.9032095 5.22441097,33.2556201 C4.57669801,32.6232086 4.08138809,31.8613388 3.76884282,31.0158417 C3.50213748,30.3301588 3.18215059,29.2938968 3.09850745,27.3969598 C3.00682757,25.3399111 2.98420516,24.7226775 2.98420516,19.5190467 C2.98420516,14.315416 3.00682757,13.6907422 3.09850745,11.6414312 C3.18215059,9.73675653 3.50213748,8.7082322 3.76884282,8.02254931 C4.08138809,7.17675474 4.57669801,6.40744467 5.23215015,5.78247336 C5.86438475,5.13488397 6.6264,4.63966855 7.47235596,4.3274804 C8.15816968,4.06082595 9.19462945,3.7409001 11.0919284,3.65697541 C13.1493696,3.56561053 13.7667209,3.54269493 18.971047,3.54269493 C24.1834099,3.54269493 24.8004637,3.56561053 26.8504633,3.65697541 C28.7555014,3.7409001 29.784222,4.06082595 30.4700357,4.3274804 C31.3156941,4.63966855 32.0854485,5.13488397 32.7102415,5.78247336 C33.3579545,6.41488486 33.8532644,7.17675474 34.1658097,8.02254931 C34.432515,8.7082322 34.7525019,9.74419672 34.8364426,11.6414312 C34.9278249,13.6984799 34.9507449,14.315416 34.9507449,19.5190467 C34.9507449,24.7226775 34.9278249,25.3321734 34.8364426,27.3892221 Z" id="Shape"></path>
                <path d="M19.4482759,9 C13.9275415,9 9.44827586,13.4789687 9.44827586,19 C9.44827586,24.5210313 13.9275415,29 19.4482759,29 C24.9693072,29 29.4482759,24.5210313 29.4482759,19 C29.4482759,13.4789687 24.9693072,9 19.4482759,9 Z M19.4482759,25.4867514 C15.866705,25.4867514 12.9615245,22.5818678 12.9615245,19 C12.9615245,15.4181322 15.866705,12.5132486 19.4482759,12.5132486 C23.0301437,12.5132486 25.9350273,15.4181322 25.9350273,19 C25.9350273,22.5818678 23.0301437,25.4867514 19.4482759,25.4867514 L19.4482759,25.4867514 Z" id="Shape"></path>
                <path d="M33.4482759,9.5 C33.4482759,10.8805828 32.3289299,12 30.9481169,12 C29.5676218,12 28.4482759,10.8805828 28.4482759,9.5 C28.4482759,8.11909915 29.5676218,7 30.9481169,7 C32.3289299,7 33.4482759,8.11909915 33.4482759,9.5 L33.4482759,9.5 Z" id="Path"></path>
            </g>
        </g>
    </g>
</svg>